<?xml version="1.0" encoding="UTF-8"?>
<svg id="Layer_1" data-name="Layer 1" xmlns="http://www.w3.org/2000/svg" viewBox="0 0 180 130">
  <defs>
    <style>
      .cls-1 {
        fill: #007878;
      }

      .cls-2 {
        fill: #fff;
      }
    </style>
  </defs>
  <g id="air_conditioner" data-name="air conditioner">
    <path class="cls-1" d="m12.04,5.48h155.91c3.89,0,7.04,3.16,7.04,7.04v104.95c0,3.89-3.16,7.04-7.04,7.04H12.04c-3.89,0-7.04-3.16-7.04-7.04V12.53c0-3.89,3.16-7.04,7.04-7.04Z"/>
    <path class="cls-2" d="m49.57,23.22h-26.15c-.33,0-.69.22-.69.58v20.05c0,.35.32.65.69.65h26.15c.46,0,.48-.58.48-.65v-20.05c0-.26-.08-.58-.48-.58Zm0,0h-26.15c-.33,0-.69.22-.69.58v20.05c0,.35.32.65.69.65h26.15c.46,0,.48-.58.48-.65v-20.05c0-.26-.08-.58-.48-.58Zm0,0h-26.15c-.33,0-.69.22-.69.58v20.05c0,.35.32.65.69.65h26.15c.46,0,.48-.58.48-.65v-20.05c0-.26-.08-.58-.48-.58Zm0,0h-26.15c-.33,0-.69.22-.69.58v20.05c0,.35.32.65.69.65h26.15c.46,0,.48-.58.48-.65v-20.05c0-.26-.08-.58-.48-.58Zm0,0h-26.15c-.33,0-.69.22-.69.58v20.05c0,.35.32.65.69.65h26.15c.46,0,.48-.58.48-.65v-20.05c0-.26-.08-.58-.48-.58Zm0,0h-26.15c-.33,0-.69.22-.69.58v20.05c0,.35.32.65.69.65h26.15c.46,0,.48-.58.48-.65v-20.05c0-.26-.08-.58-.48-.58Zm0,0h-26.15c-.33,0-.69.22-.69.58v20.05c0,.35.32.65.69.65h26.15c.46,0,.48-.58.48-.65v-20.05c0-.26-.08-.58-.48-.58Zm0,0h-26.15c-.33,0-.69.22-.69.58v20.05c0,.35.32.65.69.65h26.15c.46,0,.48-.58.48-.65v-20.05c0-.26-.08-.58-.48-.58Zm0,0h-26.15c-.33,0-.69.22-.69.58v20.05c0,.35.32.65.69.65h26.15c.46,0,.48-.58.48-.65v-20.05c0-.26-.08-.58-.48-.58Zm0,0h-26.15c-.33,0-.69.22-.69.58v20.05c0,.35.32.65.69.65h26.15c.46,0,.48-.58.48-.65v-20.05c0-.26-.08-.58-.48-.58Zm118.39-11.2H12.05c-.28,0-.51.22-.51.5v104.95c0,.27.23.5.51.5h155.91c.27,0,.5-.23.5-.5V12.53c0-.28-.23-.5-.5-.5Zm-72.11,11.45c0-1.04.84-1.88,1.89-1.88h24.91c1.05,0,1.89.84,1.89,1.88v.38c0,1.04-.84,1.89-1.89,1.89h-24.91c-1.05,0-1.89-.85-1.89-1.89v-.38Zm0,10.19c0-1.04.84-1.88,1.89-1.88h24.91c1.05,0,1.89.84,1.89,1.88v.38c0,1.04-.84,1.89-1.89,1.89h-24.91c-1.05,0-1.89-.85-1.89-1.89v-.38Zm0,10.25c0-1.05,1.01-1.94,2.05-1.94h24.87c1.04,0,1.77.9,1.77,1.94v.31c0,1.04-.73,1.9-1.77,1.9h-24.87c-1.04,0-2.05-.86-2.05-1.9v-.31Zm-35.48-20.49c0-1.04.9-1.83,1.95-1.83h24.86c1.05,0,1.88.79,1.88,1.83v.32c0,1.04-.84,2-1.88,2h-24.86c-1.05,0-1.95-.96-1.95-2v-.32Zm0,10.25c0-1.04.9-1.88,1.95-1.88h24.86c1.05,0,1.88.84,1.88,1.88v.32c0,1.04-.84,1.95-1.88,1.95h-24.86c-1.05,0-1.95-.91-1.95-1.95v-.32Zm0,10.25c0-1.05.9-1.94,1.95-1.94h24.86c1.05,0,1.88.9,1.88,1.94v.31c0,1.04-.84,1.9-1.88,1.9h-24.86c-1.05,0-1.95-.86-1.95-1.9v-.31Zm-40.9-.07v-20.05c0-2.12,1.77-3.84,3.96-3.84h26.15c2.14,0,3.75,1.65,3.75,3.84v20.05c0,2.2-1.65,3.92-3.75,3.92h-26.15c-2.18,0-3.96-1.76-3.96-3.92Zm140.56,61.74c0,1.05-.63,2.07-1.67,2.07H23.04c-1.05,0-1.94-1.03-1.94-2.07v-.31c0-1.05.9-1.77,1.94-1.77h135.31c1.04,0,1.67.73,1.67,1.77v.31Zm0-10.23c0,1.04-.63,1.73-1.67,1.73H23.04c-1.05,0-1.94-.69-1.94-1.73v-.31c0-1.05.9-1.73,1.94-1.73h135.31c1.04,0,1.67.69,1.67,1.73v.31Zm0-10.23c0,1.04-.63,1.76-1.67,1.76H23.04c-1.05,0-1.94-.72-1.94-1.76v-.31c0-1.05.9-1.7,1.94-1.7h135.31c1.04,0,1.67.65,1.67,1.7v.31Zm0-10.23c0,1.05-.63,1.8-1.67,1.8H23.04c-1.05,0-1.94-.75-1.94-1.8v-.31c0-1.04.9-2.04,1.94-2.04h135.31c1.04,0,1.67,1,1.67,2.04v.31Zm0-10.23c0,1.05-.63,1.83-1.67,1.83H23.04c-1.05,0-1.94-.78-1.94-1.83v-.31c0-1.04.9-2.01,1.94-2.01h135.31c1.04,0,1.67.97,1.67,2.01v.31Zm0-20.45c0,1.04-.63,1.9-1.67,1.9h-24.86c-1.05,0-2.16-.86-2.16-1.9v-.31c0-1.05,1.12-1.94,2.16-1.94h24.86c1.04,0,1.67.9,1.67,1.94v.31Zm0-10.18c0,1.04-.84,1.89-1.88,1.89h-24.92c-1.04,0-1.89-.85-1.89-1.89v-.38c0-1.04.85-1.88,1.89-1.88h24.92c1.04,0,1.88.84,1.88,1.88v.38Zm0-10.19c0,1.04-.84,1.89-1.88,1.89h-24.92c-1.04,0-1.89-.85-1.89-1.89v-.38c0-1.04.85-1.88,1.89-1.88h24.92c1.04,0,1.88.84,1.88,1.88v.38Zm-110.45,20.64c.46,0,.48-.58.48-.65v-20.05c0-.26-.08-.58-.48-.58h-26.15c-.33,0-.69.22-.69.58v20.05c0,.35.32.65.69.65h26.15Zm0-21.27h-26.15c-.33,0-.69.22-.69.58v20.05c0,.35.32.65.69.65h26.15c.46,0,.48-.58.48-.65v-20.05c0-.26-.08-.58-.48-.58Zm0,0h-26.15c-.33,0-.69.22-.69.58v20.05c0,.35.32.65.69.65h26.15c.46,0,.48-.58.48-.65v-20.05c0-.26-.08-.58-.48-.58Zm0,0h-26.15c-.33,0-.69.22-.69.58v20.05c0,.35.32.65.69.65h26.15c.46,0,.48-.58.48-.65v-20.05c0-.26-.08-.58-.48-.58Zm0,0h-26.15c-.33,0-.69.22-.69.58v20.05c0,.35.32.65.69.65h26.15c.46,0,.48-.58.48-.65v-20.05c0-.26-.08-.58-.48-.58Zm0,0h-26.15c-.33,0-.69.22-.69.58v20.05c0,.35.32.65.69.65h26.15c.46,0,.48-.58.48-.65v-20.05c0-.26-.08-.58-.48-.58Zm0,0h-26.15c-.33,0-.69.22-.69.58v20.05c0,.35.32.65.69.65h26.15c.46,0,.48-.58.48-.65v-20.05c0-.26-.08-.58-.48-.58Zm0,0h-26.15c-.33,0-.69.22-.69.58v20.05c0,.35.32.65.69.65h26.15c.46,0,.48-.58.48-.65v-20.05c0-.26-.08-.58-.48-.58Zm0,0h-26.15c-.33,0-.69.22-.69.58v20.05c0,.35.32.65.69.65h26.15c.46,0,.48-.58.48-.65v-20.05c0-.26-.08-.58-.48-.58Z"/>
  </g>
</svg>