<?xml version="1.0" encoding="UTF-8"?>
<svg id="Layer_1" data-name="Layer 1" xmlns="http://www.w3.org/2000/svg" viewBox="0 0 180 200">
  <defs>
    <style>
      .cls-1 {
        fill: #007878;
      }

      .cls-2 {
        fill: #fff;
      }
    </style>
  </defs>
  <g id="trash_compactor" data-name="trash compactor">
    <path class="cls-1" d="m138.59,195.18H41.93c-3.53,0-6.41-2.88-6.41-6.41v-8.11c0-3.53,2.88-6.41,6.41-6.41h96.66c3.53,0,6.41,2.88,6.41,6.41v8.11c0,3.53-2.88,6.41-6.41,6.41Zm-.61-22.26h-10.37c-3.19,0-5.78-1.55-7.7-4.6l-5.41-8.63c-.33-.52-.8-.83-1.08-.83h-46.82c-.27,0-.74.27-1.06.77-.01.02-3.45,5.46-5.7,8.92-1.88,2.9-4.45,4.38-7.62,4.38h-10.3c-3.82,0-6.93-3.04-6.93-6.77V46.54c0-3.36,2.78-5.98,6.33-5.98h97.26c3.44,0,5.93,2.52,5.93,5.98v119.61c0,3.86-2.81,6.77-6.53,6.77Zm.31-134.16H41.23c-3.43,0-6.23-2.79-6.23-6.23V11.04c0-3.43,2.79-6.23,6.23-6.23h97.07c3.43,0,6.22,2.79,6.22,6.23v21.49c0,3.43-2.79,6.23-6.22,6.23Zm-23.52,134.68h-49.17c-1.28,0-2.45-.7-3.12-1.88-.76-1.33-.74-2.97.04-4.28l3.36-5.66c.67-1.14,1.83-1.82,3.08-1.82h42.57c1.28,0,2.44.7,3.12,1.88l3.24,5.67c.75,1.31.74,2.94-.02,4.25-.67,1.16-1.83,1.85-3.1,1.85Z"/>
    <path class="cls-2" d="m41.93,180.66v8.11h96.66v-8.11H41.93Zm-.52-133.7v119.18c0,.15.24.37.53.37h10.3c.73,0,1.37-.11,2.24-1.46,2.23-3.42,5.65-8.83,5.68-8.88,1.53-2.34,3.93-3.72,6.45-3.72h46.82c2.54,0,5.03,1.47,6.51,3.84l5.4,8.62c.93,1.48,1.6,1.6,2.27,1.6h10.38c.05,0,.07,0,.07,0,0-.03.05-.14.05-.36V46.97H41.41Zm89.66,12.02H48.84c-.83,0-1.59-.22-2.13-.76-.54-.55-.88-1.28-.88-2.11,0-1.67,1.35-2.99,3.02-2.99h82.23c.83,0,1.59.37,2.14.91.54.55.88,1.2.88,2.03,0,1.67-1.36,2.92-3.03,2.92Zm-15.97-41.5v8.61c0,.78-.63,1.42-1.42,1.42h-47.85c-.78,0-1.42-.63-1.42-1.42v-8.61c0-.78.64-1.42,1.42-1.42h47.85c.78,0,1.42.63,1.42,1.42Zm-73.7-6.26v21.13h96.7V11.23H41.41Zm76.9,14.87c0,2.54-2.07,4.62-4.62,4.62h-47.85c-2.55,0-4.63-2.08-4.63-4.62v-8.61c0-2.55,2.08-4.62,4.63-4.62h47.85c2.55,0,4.62,2.07,4.62,4.62v8.61Zm-49.34,136.91c-.11,0-.24.1-.32.25l-3.36,5.67c-.22.36-.16.79,0,1.06.06.1.17.26.33.26h49.17c.16,0,.27-.16.33-.26.14-.24.23-.66,0-1.05l-3.24-5.66c-.09-.16-.22-.27-.34-.27h-42.57Z"/>
  </g>
</svg>