<?xml version="1.0" encoding="UTF-8"?>
<svg id="Layer_1" data-name="Layer 1" xmlns="http://www.w3.org/2000/svg" viewBox="0 0 180 200">
  <defs>
    <style>
      .cls-1 {
        fill: #007878;
      }

      .cls-2 {
        fill: #fff;
      }
    </style>
  </defs>
  <g id="washer">
    <path class="cls-1" d="m175,41.18v149.69c0,3.61-2.94,6.54-6.54,6.54H11.54c-3.61,0-6.54-2.93-6.54-6.54V41.18c0-2.47,1.37-4.63,3.4-5.73V8.86c0-3.46,2.82-6.28,6.28-6.28h150.65c3.46,0,6.28,2.82,6.28,6.28v26.59c2.03,1.11,3.4,3.26,3.4,5.73Z"/>
    <path class="cls-2" d="m33.29,21.54c0,1.62-1.32,2.94-2.94,2.94s-2.94-1.32-2.94-2.94,1.32-2.94,2.94-2.94,2.94,1.32,2.94,2.94Zm14.63,0c0,1.62-1.31,2.94-2.94,2.94s-2.94-1.32-2.94-2.94,1.32-2.94,2.94-2.94,2.94,1.32,2.94,2.94Zm0,0c0,1.62-1.31,2.94-2.94,2.94s-2.94-1.32-2.94-2.94,1.32-2.94,2.94-2.94,2.94,1.32,2.94,2.94Zm0,0c0,1.62-1.31,2.94-2.94,2.94s-2.94-1.32-2.94-2.94,1.32-2.94,2.94-2.94,2.94,1.32,2.94,2.94Zm49.6,0c0,4.15-3.37,7.52-7.52,7.52s-7.52-3.37-7.52-7.52,3.37-7.52,7.52-7.52,7.52,3.37,7.52,7.52Zm40.38,0c0,1.62-1.32,2.94-2.94,2.94s-2.94-1.32-2.94-2.94,1.32-2.94,2.94-2.94,2.94,1.32,2.94,2.94Zm0,0c0,1.62-1.32,2.94-2.94,2.94s-2.94-1.32-2.94-2.94,1.32-2.94,2.94-2.94,2.94,1.32,2.94,2.94Zm-40.38,0c0,4.15-3.37,7.52-7.52,7.52s-7.52-3.37-7.52-7.52,3.37-7.52,7.52-7.52,7.52,3.37,7.52,7.52Zm-49.6,0c0,1.62-1.31,2.94-2.94,2.94s-2.94-1.32-2.94-2.94,1.32-2.94,2.94-2.94,2.94,1.32,2.94,2.94Zm117.4-12.67v26.02H14.68V8.86h150.65ZM36.55,21.54c0-3.43-2.79-6.21-6.21-6.21s-6.21,2.79-6.21,6.21,2.79,6.21,6.21,6.21,6.21-2.79,6.21-6.21Zm14.63,0c0-3.43-2.79-6.21-6.2-6.21s-6.21,2.79-6.21,6.21,2.79,6.21,6.21,6.21,6.2-2.79,6.2-6.21Zm49.6,0c0-5.95-4.84-10.79-10.79-10.79s-10.79,4.84-10.79,10.79,4.84,10.79,10.79,10.79,10.79-4.84,10.79-10.79Zm40.38,0c0-3.43-2.79-6.21-6.21-6.21s-6.21,2.79-6.21,6.21,2.79,6.21,6.21,6.21,6.21-2.79,6.21-6.21Zm14.63,0c0-3.43-2.79-6.21-6.2-6.21s-6.21,2.79-6.21,6.21,2.79,6.21,6.21,6.21,6.2-2.79,6.2-6.21Zm-3.27,0c0,1.62-1.31,2.94-2.94,2.94s-2.94-1.32-2.94-2.94,1.32-2.94,2.94-2.94,2.94,1.32,2.94,2.94Zm-14.63,0c0,1.62-1.32,2.94-2.94,2.94s-2.94-1.32-2.94-2.94,1.32-2.94,2.94-2.94,2.94,1.32,2.94,2.94Zm-40.38,0c0,4.15-3.37,7.52-7.52,7.52s-7.52-3.37-7.52-7.52,3.37-7.52,7.52-7.52,7.52,3.37,7.52,7.52Zm-49.6,0c0,1.62-1.31,2.94-2.94,2.94s-2.94-1.32-2.94-2.94,1.32-2.94,2.94-2.94,2.94,1.32,2.94,2.94Zm0,0c0,1.62-1.31,2.94-2.94,2.94s-2.94-1.32-2.94-2.94,1.32-2.94,2.94-2.94,2.94,1.32,2.94,2.94Zm49.6,0c0,4.15-3.37,7.52-7.52,7.52s-7.52-3.37-7.52-7.52,3.37-7.52,7.52-7.52,7.52,3.37,7.52,7.52Zm0,0c0,4.15-3.37,7.52-7.52,7.52s-7.52-3.37-7.52-7.52,3.37-7.52,7.52-7.52,7.52,3.37,7.52,7.52Zm-49.6,0c0,1.62-1.31,2.94-2.94,2.94s-2.94-1.32-2.94-2.94,1.32-2.94,2.94-2.94,2.94,1.32,2.94,2.94Zm65.59,57.21c-7.1-4.62-15.16-6.96-23.47-6.96-6.47,0-13.08,1.41-19.5,4.26-8.7,3.86-15.61,10.78-19.45,19.48-2.13,4.83-3.45,9.76-3.98,14.65,2.73,2.79,6.56,4.54,10.76,4.54,3.52,0,6.83-1.24,9.42-3.28.43-.32,1.02-.32,1.45,0,2.58,2.07,5.86,3.28,9.38,3.28,3.96,0,7.56-1.53,10.25-4,.47-.44,1.12-.44,1.6,0,2.69,2.47,6.25,4,10.22,4s7.56-1.53,10.25-4c.48-.44,1.13-.44,1.6,0,2.69,2.47,6.25,4,10.21,4,2.54,0,4.92-.62,7-1.71v-13.76c0-.48.16-.94.43-1.31-3.31-7.73-8.87-14.44-16.17-19.19Zm17.76,57.43c-7.72,14.95-23.32,25.19-41.28,25.19-15.75,0-30.3-7.89-38.91-21.11-8.83-13.55-9.92-30.33-2.99-46.04,4.16-9.45,11.66-16.97,21.12-21.15,15.72-6.96,32.51-5.88,46.07,2.95,7.96,5.18,14,12.52,17.54,20.98h2.58c-3.68-9.35-10.21-17.47-18.93-23.15-8.06-5.24-17.21-7.89-26.65-7.89-7.36,0-14.89,1.61-22.2,4.85-9.85,4.36-17.67,12.19-22.01,22.04-7.38,16.71-6.25,34.5,3.08,48.83,9.1,13.95,24.46,22.29,41.09,22.29,19.42,0,36.23-11.34,44.16-27.76h-2.43c-.08,0-.16,0-.24-.01ZM11.54,41.18v149.69h156.92V41.18H11.54Zm139.91,86.84c0,4.5-3.66,8.16-8.16,8.16h-2.13c-8.36,20.15-28.24,34.36-51.38,34.36-18.87,0-36.3-9.45-46.61-25.29-10.57-16.22-11.88-36.3-3.59-55.09,5-11.36,14.01-20.38,25.37-25.41,18.79-8.32,38.88-7.02,55.13,3.55,10.64,6.92,18.4,17.05,22.35,28.68h.86c4.5,0,8.16,3.66,8.16,8.16v22.88Zm-18.96,4.92h10.8c2.71,0,4.92-2.21,4.92-4.92v-22.88c0-2.71-2.21-4.92-4.92-4.92h-10.8v32.72Z"/>
  </g>
</svg>