<?xml version="1.0" encoding="UTF-8"?>
<svg id="Layer_1" data-name="Layer 1" xmlns="http://www.w3.org/2000/svg" viewBox="0 0 180 300">
  <defs>
    <style>
      .cls-1 {
        fill: #007878;
      }

      .cls-2 {
        fill: #fff;
      }
    </style>
  </defs>
  <path class="cls-1" d="m170.28,60.09v12.93c0,1.64-1.27,3.05-2.89,3.36v212.32c0,3.34-2.35,6.04-5.47,6.29h-.31c-1.65,0-2.99-.57-4.22-1.78-1.4-1.43-1.56-3.15-1.56-4.33V76.32c-.67-.13-1.39-.42-1.88-.91-.65-.65-1.01-1.52-1.01-2.39v-2.99c0-1.06-.83-1.44-1.6-1.44h-3.05c-1.4,0-2.57-.78-3.08-1.93h-5.38v220.63c0,4.24-3.22,7.55-7.33,7.55H17.46c-4.19,0-7.74-3.46-7.74-7.55V29.28c0-4.24,3.69-8.1,7.74-8.1h20.22l5.87-13.13c.83-1.85,2.67-3.05,4.7-3.05h53.05c2.02,0,3.87,1.19,4.69,3.05l5.87,13.13h20.62c4.38,0,7.33,4.19,7.33,8.1v24.86h5.33c.22-.53.52-.9.66-1.05l.07-.08c.78-.81,1.73-.8,2.32-.8h13.7c4.7,0,8.38,3.46,8.38,7.87Z"/>
  <path class="cls-2" d="m167.39,60.09v12.93c0,.27-.34.54-.68.54-1.04,0-2.21.89-2.21,2.07v213.07c0,1.58-.96,3.26-2.76,3.4-.94.04-1.59-.23-2.31-.93-.5-.51-.71-1.19-.71-2.28V75.38c0-1.21-1.23-1.87-2.13-1.87-.22,0-.53-.1-.6-.14-.08-.08-.16-.22-.16-.34v-2.99c0-2.51-1.89-4.33-4.49-4.33h-3.05c-.18,0-.48-.08-.48-.37l-.03-.67-.42-.42c-.44-.45-1-.46-1.21-.46h-6.31v-6.75h6.28c.93,0,1.7-.75,1.7-1.67,0-.05,0-.12.1-.26h14c3.08,0,5.49,2.19,5.49,4.98Z"/>
  <path class="cls-2" d="m74.77,68.97c-9.48,0-17.2,7.72-17.2,17.21s7.72,17.2,17.2,17.2,17.21-7.72,17.21-17.2-7.72-17.21-17.21-17.21Zm0,29.26c-6.67,0-12.05-5.38-12.05-12.05s5.38-12.05,12.05-12.05,12.05,5.37,12.05,12.05-5.38,12.05-12.05,12.05Zm57.71-71.26H17.46c-.88,0-1.96,1.28-1.96,2.32v258.02c0,.92.95,1.77,1.96,1.77h115.02c1.01,0,1.55-.92,1.55-1.77V29.28c0-1.1-.81-2.32-1.55-2.32Zm-57.71,39.11c11.08,0,20.1,9.02,20.1,20.1s-9.02,20.09-20.1,20.09-20.09-9.01-20.09-20.09,9.01-20.1,20.09-20.1Zm32.76,196.82c0,3.54-2.88,6.42-6.42,6.42h-52.68c-3.55,0-6.43-2.88-6.43-6.42v-34.37c0-3.55,2.88-6.43,6.43-6.43h52.68c3.54,0,6.42,2.88,6.42,6.43v34.37Zm-6.42-37.91h-52.68c-1.95,0-3.54,1.59-3.54,3.54v34.37c0,1.95,1.59,3.53,3.54,3.53h52.68c1.95,0,3.53-1.58,3.53-3.53v-34.37c0-1.95-1.58-3.54-3.53-3.54ZM40.76,21.38h68.02l-5.35-11.98c-.41-.92-1.33-1.52-2.34-1.52h-52.66c-1.01,0-1.92.59-2.34,1.52l-5.35,11.98Z"/>
</svg>