<?xml version="1.0" encoding="UTF-8"?>
<svg id="Layer_1" data-name="Layer 1" xmlns="http://www.w3.org/2000/svg" viewBox="0 0 180 190">
  <defs>
    <style>
      .cls-1 {
        fill: #007878;
      }

      .cls-2 {
        fill: #fff;
      }
    </style>
  </defs>
  <g id="dehumidifier">
    <path class="cls-1" d="m143.3,115.56H36.7c-3.54,0-6.32-3.04-6.32-6.93V10.66c0-3.82,2.72-6.7,6.32-6.7h106.6c3.69,0,6.7,3.01,6.7,6.7v97.97c0,3.76-3.07,6.93-6.7,6.93Zm-.08,70.49H36.78c-3.74,0-6.78-3.04-6.78-6.78v-53.94c0-3.84,3.13-6.97,6.97-6.97h24.38c2.65,0,5.01,1.53,6.02,3.9.33.78,1.09,1.28,1.93,1.28h41.4c.56,0,1.09-.22,1.48-.62.19-.19.34-.42.45-.66,1.01-2.37,3.38-3.9,6.02-3.9h24.38c3.84,0,6.97,3.12,6.97,6.97v53.94c0,3.74-3.04,6.78-6.78,6.78Z"/>
    <path class="cls-2" d="m133.73,20.79v10.07c0,.81-.57,1.51-1.36,1.67l-1.01.2c-11.4,2.26-25.58,5.08-41.5,5.08h-.18c-15.58-.02-29.53-2.79-40.74-5.02l-1.31-.26c-.79-.15-1.36-.86-1.36-1.67v-10.07c0-.41.34-.75.75-.75h85.96c.42,0,.76.34.76.75Zm10.11-10.13v97.97c0,.39-.34.78-.54.78H36.74c-.07-.1-.21-.38-.21-.78V10.66c0-.36.11-.54.09-.54,0,0,.02,0,.07,0h106.6c.3,0,.54.24.54.55Zm-8.71,84.6c0-.67-.28-1.15-.72-1.6-.44-.44-1.05-.67-1.72-.67H47.31c-1.35,0-2.44,1-2.44,2.34,0,.67.28,1.19.72,1.63.44.44,1.05.61,1.72.61h85.38c1.35,0,2.44-.97,2.44-2.31Zm0-11.11c0-.68-.28-1.4-.72-1.83-.44-.44-1.05-.79-1.72-.79H47.31c-1.35,0-2.44,1.2-2.44,2.55,0,.67.28,1.4.72,1.83.44.44,1.05.78,1.72.78h85.38c1.35,0,2.44-1.19,2.44-2.54Zm0-11.26c0-.68-.28-1.18-.72-1.63-.44-.44-1.05-.62-1.72-.62H47.31c-1.35,0-2.44.97-2.44,2.31,0,.68.28,1.17.72,1.61s1.05.66,1.72.66h85.38c1.35,0,2.44-.99,2.44-2.34Zm0-11.12c0-.67-.28-1.4-.72-1.85-.44-.44-1.05-.74-1.72-.74H47.31c-1.35,0-2.44,1.18-2.44,2.52,0,.68.28,1.37.72,1.81.44.44,1.05.82,1.72.82h85.38c1.35,0,2.44-1.22,2.44-2.57Zm0-11.26c0-.67-.28-1.2-.72-1.64-.44-.44-1.05-.58-1.72-.58H47.31c-1.35,0-2.44.95-2.44,2.3,0,.68.28,1.14.72,1.58.44.45,1.05.71,1.72.71h85.38c1.35,0,2.44-1.01,2.44-2.36Zm1.67-29.73c0-2.11-1.72-3.83-3.83-3.83H47.02c-2.11,0-3.83,1.72-3.83,3.83v10.07c0,2.28,1.61,4.25,3.84,4.68l1.31.26c11.34,2.25,25.45,5.06,41.33,5.08h.19c16.22,0,30.57-2.85,42.1-5.14l1-.2c2.23-.44,3.85-2.41,3.85-4.69v-10.07ZM61.34,124.52c.19,0,.34.1.37.16,1.3,3.05,4.28,5.01,7.59,5.01h41.4c2.2,0,4.27-.86,5.84-2.42.75-.75,1.34-1.62,1.76-2.6.03-.07.17-.16.36-.16h24.38c.45,0,.81.36.81.81v53.94c0,.34-.28.62-.62.62H36.78c-.34,0-.62-.28-.62-.62v-53.94c0-.45.36-.81.81-.81h24.38Z"/>
  </g>
</svg>