<?xml version="1.0" encoding="UTF-8"?>
<svg id="Layer_1" data-name="Layer 1" xmlns="http://www.w3.org/2000/svg" viewBox="0 0 170 194.3">
  <defs>
    <style>
      .cls-1 {
        fill: #007878;
      }

      .cls-2 {
        fill: #fff;
      }
    </style>
  </defs>
  <g id="dishwasher">
    <path class="cls-1" d="m164.14,39.33H5.86c-3.23,0-5.86-2.63-5.86-5.86V6.51C0,2.92,2.92,0,6.51,0h156.97c3.59,0,6.51,2.92,6.51,6.51v26.95c0,3.23-2.63,5.86-5.86,5.86Zm-.96,3.21H6.82c-3.59,0-6.51,2.92-6.51,6.51v122.44c0,3.15,2.24,5.78,5.21,6.38v9.9c0,3.6,2.93,6.51,6.51,6.51h145.93c3.59,0,6.51-2.92,6.51-6.51v-9.9c2.97-.61,5.21-3.24,5.21-6.38V49.06c0-3.6-2.93-6.51-6.51-6.51Z"/>
    <path class="cls-2" d="m70.34,61.32h29.32v3.26h-29.32v-3.26Zm92.84-12.27v122.45H6.82V49.06h156.36Zm-60.26,11.29c0-1.26-1.02-2.28-2.28-2.28h-31.27c-1.26,0-2.28,1.02-2.28,2.28v5.21c0,1.26,1.02,2.28,2.28,2.28h31.27c1.26,0,2.28-1.02,2.28-2.28v-5.21Zm44.07-44.22c-1.62,0-2.93,1.32-2.93,2.93s1.32,2.93,2.93,2.93,2.93-1.32,2.93-2.93-1.32-2.93-2.93-2.93Zm-11.66,2.93c0,1.62-1.32,2.93-2.93,2.93s-2.93-1.32-2.93-2.93,1.31-2.93,2.93-2.93,2.93,1.32,2.93,2.93Zm0,0c0,1.62-1.32,2.93-2.93,2.93s-2.93-1.32-2.93-2.93,1.31-2.93,2.93-2.93,2.93,1.32,2.93,2.93Zm28.15-12.55v26.31H6.51V6.52h156.97Zm-39.48,12.55c0-3.41-2.78-6.19-6.19-6.19s-6.18,2.78-6.18,6.19,2.78,6.19,6.18,6.19,6.19-2.78,6.19-6.19Zm14.59,0c0-3.41-2.78-6.19-6.19-6.19s-6.18,2.78-6.18,6.19,2.78,6.19,6.18,6.19,6.19-2.78,6.19-6.19Zm14.59,0c0-3.41-2.78-6.19-6.19-6.19s-6.19,2.78-6.19,6.19,2.78,6.19,6.19,6.19,6.19-2.78,6.19-6.19Zm-17.84,0c0,1.62-1.32,2.93-2.93,2.93s-2.93-1.32-2.93-2.93,1.31-2.93,2.93-2.93,2.93,1.32,2.93,2.93Zm-14.59,0c0,1.62-1.32,2.93-2.93,2.93s-2.93-1.32-2.93-2.93,1.31-2.93,2.93-2.93,2.93,1.32,2.93,2.93Zm37.22,158.99v9.74H12.03v-9.74h145.93Z"/>
  </g>
</svg>