<?xml version="1.0" encoding="UTF-8"?>
<svg id="Layer_1" data-name="Layer 1" xmlns="http://www.w3.org/2000/svg" viewBox="0 0 180 200">
  <defs>
    <style>
      .cls-1 {
        fill: #007878;
      }

      .cls-2 {
        fill: #fff;
      }
    </style>
  </defs>
  <g id="dryer">
    <path class="cls-1" d="m175,41.18v149.69c0,3.61-2.94,6.54-6.54,6.54H11.54c-3.6,0-6.54-2.93-6.54-6.54V41.18c0-2.47,1.37-4.62,3.4-5.73V8.86c0-3.46,2.82-6.28,6.28-6.28h150.65c3.46,0,6.28,2.82,6.28,6.28v26.59c2.03,1.11,3.4,3.26,3.4,5.73Z"/>
    <path class="cls-2" d="m113.99,21.54c0,1.62-1.32,2.94-2.94,2.94s-2.94-1.32-2.94-2.94,1.32-2.94,2.94-2.94,2.94,1.32,2.94,2.94Zm-16.44,0c0,4.15-3.37,7.52-7.52,7.52s-7.52-3.37-7.52-7.52,3.37-7.52,7.52-7.52,7.52,3.37,7.52,7.52Zm0,0c0,4.15-3.37,7.52-7.52,7.52s-7.52-3.37-7.52-7.52,3.37-7.52,7.52-7.52,7.52,3.37,7.52,7.52Zm67.77-12.67v26.02H14.68V8.86h150.65Zm-90.17,12.67c0-3.43-2.79-6.21-6.2-6.21s-6.21,2.79-6.21,6.21,2.79,6.21,6.21,6.21,6.2-2.79,6.2-6.21Zm25.66,0c0-5.95-4.84-10.79-10.79-10.79s-10.79,4.84-10.79,10.79,4.84,10.79,10.79,10.79,10.79-4.84,10.79-10.79Zm16.44,0c0-3.43-2.79-6.21-6.2-6.21s-6.21,2.79-6.21,6.21,2.79,6.21,6.21,6.21,6.2-2.79,6.2-6.21Zm-19.71,0c0,4.15-3.37,7.52-7.52,7.52s-7.52-3.37-7.52-7.52,3.37-7.52,7.52-7.52,7.52,3.37,7.52,7.52Zm-25.66,0c0,1.62-1.31,2.94-2.94,2.94s-2.94-1.32-2.94-2.94,1.32-2.94,2.94-2.94,2.94,1.32,2.94,2.94Zm56.7,111.73c0,.15.01.3.05.44h0c-7,14.42-21.79,24.38-38.85,24.38-14.65,0-28.17-7.34-36.18-19.62-8.22-12.61-9.21-28.26-2.73-42.94,3.84-8.7,10.74-15.62,19.45-19.48,6.43-2.84,13.04-4.26,19.5-4.26,8.31,0,16.37,2.33,23.47,6.96,7.06,4.6,12.49,11.01,15.82,18.41-.33.39-.52.9-.52,1.44v34.67Zm-53.93-14.26c3.71-5.98,4.24-13.39,1.41-19.84l-4.32-9.83-5.99,2.63,4.33,9.83c1.96,4.47,1.6,9.61-.98,13.75-4.13,6.64-4.29,14.99-.43,21.79l3.12,5.48,5.68-3.24-3.12-5.47c-2.68-4.71-2.56-10.5.3-15.11Zm18.31,0c3.71-5.98,4.24-13.39,1.41-19.84l-4.32-9.83-5.99,2.63,4.33,9.83c1.96,4.47,1.6,9.61-.98,13.75-4.13,6.64-4.29,14.99-.43,21.79l3.12,5.48,5.68-3.24-3.12-5.47c-2.68-4.71-2.56-10.5.3-15.11Zm18.31,0c3.71-5.98,4.24-13.39,1.41-19.84l-4.32-9.83-5.99,2.63,4.33,9.83c1.96,4.47,1.6,9.61-.98,13.75-4.13,6.64-4.29,14.99-.43,21.79l3.12,5.48,5.68-3.24-3.12-5.47c-2.68-4.71-2.56-10.5.3-15.11Zm20.11,16.53h2.86c-7.79,16.76-24.79,28.42-44.47,28.42-16.63,0-31.99-8.34-41.08-22.29-9.34-14.33-10.46-32.12-3.09-48.83,4.34-9.85,12.16-17.68,22.01-22.04,7.32-3.24,14.85-4.85,22.21-4.85,9.43,0,18.59,2.65,26.64,7.89,8.52,5.55,14.95,13.42,18.65,22.5h-2.8c-3.57-8.18-9.49-15.27-17.25-20.32-13.57-8.83-30.36-9.91-46.08-2.95-9.45,4.18-16.95,11.7-21.12,21.15-6.93,15.71-5.85,32.49,2.99,46.04,8.61,13.21,23.16,21.11,38.92,21.11,18.2,0,34-10.53,41.6-25.83Zm37.08-94.36v149.7H11.54V41.18h156.92Zm-17.67,63.31c0-4.5-3.66-8.16-8.16-8.16h-.44c-4.01-11.35-11.68-21.23-22.12-28.02-16.24-10.57-36.33-11.87-55.13-3.55-11.35,5.03-20.36,14.06-25.37,25.41-8.29,18.79-6.98,38.86,3.59,55.09,10.32,15.84,27.75,25.29,46.61,25.29,23.39,0,43.45-14.52,51.65-35.01h1.2c4.5,0,8.16-3.66,8.16-8.16v-22.88Zm-18.96-4.92h10.8c2.71,0,4.92,2.21,4.92,4.92v22.88c0,2.71-2.21,4.92-4.92,4.92h-10.8v-32.72Z"/>
  </g>
</svg>