<?xml version="1.0" encoding="UTF-8"?>
<svg id="Layer_1" data-name="Layer 1" xmlns="http://www.w3.org/2000/svg" viewBox="0 0 180 200">
  <defs>
    <style>
      .cls-1 {
        fill: #007878;
      }

      .cls-2 {
        fill: #fff;
      }
    </style>
  </defs>
  <g id="freezer">
    <path class="cls-1" d="m168.21,196.37H11.79c-3.75,0-6.79-3.06-6.79-6.83V44.57c0-3.77,3.05-6.83,6.79-6.83h47.97c3.19,0,6.17,1.61,7.78,4.2.34.54.92.87,1.56.87h41.8c.49,0,.95-.19,1.29-.54.1-.1.19-.21.26-.33,1.61-2.59,4.59-4.2,7.78-4.2h47.97c3.75,0,6.79,3.06,6.79,6.83v144.97c0,3.77-3.05,6.83-6.79,6.83Zm.31-160.89H11.49c-3.58,0-6.49-2.91-6.49-6.49V10.12c0-3.58,2.91-6.49,6.49-6.49h157.02c3.58,0,6.49,2.91,6.49,6.49v18.87c0,3.58-2.91,6.49-6.49,6.49Z"/>
    <path class="cls-2" d="m11.79,44.22c-.17,0-.31.15-.31.34v144.97c0,.19.13.34.31.34h156.41c.17,0,.31-.15.31-.34V44.57c0-.19-.13-.34-.31-.34h-47.97c-.97,0-1.84.44-2.27,1.14-.34.54-.74,1.05-1.19,1.5-1.57,1.57-3.66,2.43-5.88,2.43h-41.8c-2.9,0-5.54-1.47-7.07-3.93-.44-.7-1.31-1.14-2.27-1.14H11.79Zm-.31-34.1v18.87h157.02V10.12H11.49Z"/>
  </g>
  <path class="cls-1" d="m106.75,103.06l1.64.88c1.16.62,1.19,2.3.04,2.96-.27.15-.56.23-.85.23s-.56-.07-.8-.2l-3.8-2.05c-.74-.4-1.63-.39-2.36.03l-4.98,2.88c-.64.37-.64,1.3,0,1.67l4.96,2.86c.72.42,1.61.43,2.34.04l3.83-2.06c.51-.28,1.14-.27,1.65.02.56.33.84.89.84,1.46s-.3,1.18-.89,1.49l-1.67.9c-.67.37-.68,1.3-.02,1.68l3.14,1.78c1.04.6,1.42,1.92.84,2.96h0c-.58,1.04-1.98,1.4-3.01.8l-3.1-1.78c-.65-.37-1.49.11-1.46.86l.04,1.9c.04,1.33-1.4,2.17-2.54,1.51-.51-.29-.91-.83-.92-1.41l-.18-4.65c-.03-.66-.39-1.25-.96-1.59l-5.34-3.1c-.64-.37-1.46.09-1.46.84v5.7c0,.83.44,1.62,1.15,2.05l3.9,2.4c.49.3.83.81.86,1.38.05,1.04-.79,1.79-1.7,1.79-.29,0-.59-.08-.88-.26l-1.87-1.14c-.64-.4-1.47.06-1.47.82v3.7c0,.6-.11,1.14-.51,1.53-.39.4-.84.64-1.44.64-1.19,0-2.07-.97-2.07-2.17v-3.41c0-.75-.99-1.22-1.63-.82l-1.39.81c-1.05.65-2.31.23-2.62-.97-.2-.75.1-1.49.73-1.87l3.61-2.14c.72-.44,1.3-1.22,1.3-2.05v-5.72c0-.74-.92-1.21-1.57-.83l-5.9,3.34h0s-.27,5.71-.27,5.71c0,.59-.39,1.12-.89,1.41-1.15.66-2.6-.18-2.57-1.51l.04-1.9c.01-.75-.8-1.24-1.45-.86l-2.95,1.78c-1.03.6-2.25.24-2.82-.79h0c-.57-1.04-.39-2.36.65-2.96l3.01-1.78c.65-.37.61-1.32-.06-1.68l-1.68-.9c-.59-.31-.91-.9-.91-1.49s.28-1.13.84-1.46c.51-.29,1.14-.31,1.65-.02l3.83,2.07c.74.4,1.62.39,2.35-.04l4.96-2.87c.64-.37.64-1.29,0-1.67l-4.98-2.88c-.72-.42-1.61-.44-2.35-.04l-3.81,2.06c-.25.13-.53.2-.8.2-.29,0-.59-.08-.85-.23-1.15-.66-1.13-2.33.04-2.96l1.66-.9c.67-.36.68-1.3.02-1.68l-2.96-1.79c-1.03-.59-1.2-1.92-.63-2.96h0c.58-1.04,1.78-1.4,2.82-.8l3.01,1.78c.66.37,1.43-.11,1.41-.87l-.07-1.87c-.02-1.01.79-1.74,1.69-1.74.28,0,.57.07.84.23.51.29.82.83.84,1.41l.13,4.34c.02.84.47,1.6,1.2,2.02l4.91,2.75c.64.37,1.6-.09,1.6-.83v-5.64c0-.83-.58-1.6-1.29-2.04l-3.69-2.28c-.5-.31-.78-.85-.78-1.44,0-1.33,1.35-2.14,2.47-1.44l1.66.96c.64.4,1.63-.06,1.63-.81v-3.45c0-1.13.67-2.14,1.8-2.24,1.3-.12,2.22.89,2.22,2.15v3.6c0,.75.82,1.21,1.46.83l1.75-1.04c.28-.17.64-.25.94-.25.88,0,1.76.7,1.76,1.7,0,.59-.31,1.13-.81,1.44l-3.94,2.42c-.72.44-1.16,1.22-1.16,2.06v5.76c0,.74.81,1.21,1.45.83l5.24-3.02c.72-.42,1.18-1.19,1.2-2.02l.12-4.35c.02-.58.34-1.12.85-1.41.28-.16.56-.23.84-.23.9,0,1.71.73,1.69,1.74l-.05,1.87c-.02.76.79,1.24,1.44.87l3.14-1.78c1.03-.6,2.44-.24,3.01.79h0c.58,1.04.26,2.37-.77,2.96l-3.15,1.81c-.66.38-.69,1.32-.02,1.68Z"/>
</svg>