<?xml version="1.0" encoding="UTF-8"?>
<svg id="Layer_1" data-name="Layer 1" xmlns="http://www.w3.org/2000/svg" viewBox="0 0 180 130">
  <defs>
    <style>
      .cls-1 {
        fill: #007878;
      }

      .cls-2 {
        fill: #fff;
      }
    </style>
  </defs>
  <g id="microwave">
    <path class="cls-1" d="m175,10.11v95.22c0,3.03-2.24,5.54-5.15,5.96v8.76c0,3.24-2.72,5.88-6.06,5.88H16.21c-3.34,0-6.06-2.63-6.06-5.88v-8.76c-2.91-.42-5.15-2.94-5.15-5.96V10.11c0-3.32,2.71-6.03,6.03-6.03h157.94c3.32,0,6.03,2.71,6.03,6.03Z"/>
    <path class="cls-2" d="m114.57,26.01H19.62c-.44,0-.81.51-.81,1.11v61.75c0,.6.37,1.11.81,1.11h94.95c.43,0,.8-.51.8-1.11V27.12c0-.6-.37-1.11-.8-1.11Zm-63.74,43.62l2.12,3.91-5.3,2.87-2.12-3.91c-2.73-5.04-2.61-11.23.31-16.16,1.66-2.8,1.89-6.28.62-9.3l-2.94-7.02,5.56-2.33,2.94,7.02c2.01,4.77,1.63,10.27-.99,14.7-1.84,3.11-1.92,7.02-.19,10.21Zm18.49,0l2.12,3.91-5.3,2.87-2.12-3.91c-2.73-5.04-2.62-11.23.3-16.16,1.66-2.8,1.89-6.28.63-9.3l-2.94-7.02,5.56-2.33,2.94,7.02c2,4.77,1.63,10.27-.99,14.7-1.84,3.11-1.92,7.02-.19,10.21Zm18.49,0l2.12,3.91-5.3,2.87-2.12-3.91c-2.73-5.04-2.62-11.23.3-16.16,1.66-2.8,1.89-6.28.63-9.3l-2.95-7.02,5.56-2.33,2.94,7.02c2,4.77,1.63,10.27-1,14.7-1.84,3.11-1.92,7.02-.19,10.21ZM11.03,10.11v95.22h124.18V10.11H11.03Zm107.25,78.77c0,2.21-1.66,4.01-3.71,4.01H19.62c-2.05,0-3.71-1.8-3.71-4.01V27.12c0-2.21,1.66-4.01,3.71-4.01h94.95c2.04,0,3.71,1.8,3.71,4.01v61.75Zm13.32,7.05c0,.93-.76,1.69-1.69,1.69h-4.46c-.93,0-1.69-.76-1.69-1.69V18.53c0-.93.76-1.69,1.69-1.69h4.46c.93,0,1.69.76,1.69,1.69v77.4Zm-5.43-.73h3V19.26h-3v75.95Zm-110.06,24.74s.05.02.09.02h147.57s.07,0,.09-.02v-8.12H16.12v8.12ZM160.66,43.24c0,3.15-2.57,5.73-5.73,5.73s-5.73-2.57-5.73-5.73,2.57-5.73,5.73-5.73,5.73,2.57,5.73,5.73Zm8.31-33.13v95.22h-28.33V10.11h28.33Zm-5.3,33.13c0-4.82-3.92-8.74-8.74-8.74s-8.74,3.92-8.74,8.74,3.92,8.74,8.74,8.74,8.74-3.92,8.74-8.74Zm3.19-25.48c0-1.12-.91-2.03-2.03-2.03h-19.46c-1.12,0-2.03.9-2.03,2.03v11.02c0,1.12.91,2.03,2.03,2.03h19.46c1.12,0,2.03-.91,2.03-2.03v-11.02Zm-20.5.99h17.48v9.04h-17.48v-9.04Z"/>
  </g>
</svg>