<?xml version="1.0" encoding="UTF-8"?>
<svg id="Layer_1" data-name="Layer 1" xmlns="http://www.w3.org/2000/svg" viewBox="0 0 180 200">
  <defs>
    <style>
      .cls-1 {
        fill: #007878;
      }

      .cls-2 {
        fill: #fff;
      }
    </style>
  </defs>
  <g id="stove">
    <path class="cls-1" d="m168.46,197.74H11.54c-3.61,0-6.54-2.93-6.54-6.54v-45.73c0-3.61,2.93-6.54,6.54-6.54h156.92c3.61,0,6.54,2.93,6.54,6.54v45.73c0,3.61-2.93,6.54-6.54,6.54Zm3.14-162.62V8.54c0-3.46-2.82-6.28-6.28-6.28H14.68c-3.46,0-6.28,2.82-6.28,6.28v26.59c-2.03,1.11-3.4,3.26-3.4,5.73v88.88c0,3.61,2.94,6.54,6.54,6.54h156.92c3.6,0,6.54-2.93,6.54-6.54V40.86c0-2.47-1.37-4.62-3.4-5.73Z"/>
    <path class="cls-2" d="m154.73,21.21c0,2.6-2.11,4.71-4.71,4.71s-4.72-2.11-4.72-4.71,2.12-4.71,4.72-4.71,4.71,2.11,4.71,4.71Zm-23.26,0c0,2.6-2.12,4.71-4.72,4.71s-4.71-2.11-4.71-4.71,2.12-4.71,4.71-4.71,4.72,2.11,4.72,4.71Zm0,0c0,2.6-2.12,4.71-4.72,4.71s-4.71-2.11-4.71-4.71,2.12-4.71,4.71-4.71,4.72,2.11,4.72,4.71Zm-73.51,0c0,2.6-2.11,4.71-4.71,4.71s-4.72-2.11-4.72-4.71,2.12-4.71,4.72-4.71,4.71,2.11,4.71,4.71Zm50.02-6.95v14.38h-35.96v-14.38h35.96Zm23.49,6.95c0,2.6-2.12,4.71-4.72,4.71s-4.71-2.11-4.71-4.71,2.12-4.71,4.71-4.71,4.72,2.11,4.72,4.71Zm0,0c0,2.6-2.12,4.71-4.72,4.71s-4.71-2.11-4.71-4.71,2.12-4.71,4.71-4.71,4.72,2.11,4.72,4.71Zm-23.49-6.95v14.38h-35.96v-14.38h35.96Zm-50.02,6.95c0,2.6-2.11,4.71-4.71,4.71s-4.72-2.11-4.72-4.71,2.12-4.71,4.72-4.71,4.71,2.11,4.71,4.71Zm107.36-12.67v26.02H14.68V8.54h150.65Zm-127.35,12.67c0-4.4-3.58-7.98-7.99-7.98s-7.98,3.58-7.98,7.98,3.58,7.98,7.98,7.98,7.99-3.58,7.99-7.98Zm23.26,0c0-4.4-3.58-7.98-7.98-7.98s-7.99,3.58-7.99,7.98,3.58,7.98,7.99,7.98,7.98-3.58,7.98-7.98Zm50.02-7.93c0-1.26-1.03-2.29-2.29-2.29h-37.92c-1.26,0-2.29,1.03-2.29,2.29v16.35c0,1.26,1.03,2.29,2.29,2.29h37.92c1.26,0,2.29-1.03,2.29-2.29V13.28Zm23.49,7.93c0-4.4-3.58-7.98-7.99-7.98s-7.98,3.58-7.98,7.98,3.58,7.98,7.98,7.98,7.99-3.58,7.99-7.98Zm23.26,0c0-4.4-3.58-7.98-7.98-7.98s-7.99,3.58-7.99,7.98,3.58,7.98,7.99,7.98,7.98-3.58,7.98-7.98Zm-26.53,0c0,2.6-2.12,4.71-4.72,4.71s-4.71-2.11-4.71-4.71,2.12-4.71,4.71-4.71,4.72,2.11,4.72,4.71Zm-59.45-6.95h35.96v14.38h-35.96v-14.38Zm-14.06,6.95c0,2.6-2.11,4.71-4.71,4.71s-4.72-2.11-4.72-4.71,2.12-4.71,4.72-4.71,4.71,2.11,4.71,4.71Zm-23.26,0c0,2.6-2.12,4.71-4.72,4.71s-4.71-2.11-4.71-4.71,2.12-4.71,4.71-4.71,4.72,2.11,4.72,4.71Zm73.28-6.95v14.38h-35.96v-14.38h35.96Zm23.49,6.95c0,2.6-2.12,4.71-4.72,4.71s-4.71-2.11-4.71-4.71,2.12-4.71,4.71-4.71,4.72,2.11,4.72,4.71Zm0,0c0,2.6-2.12,4.71-4.72,4.71s-4.71-2.11-4.71-4.71,2.12-4.71,4.71-4.71,4.72,2.11,4.72,4.71Zm-23.49-6.95v14.38h-35.96v-14.38h35.96Zm46.42,51.59v48.02c0,.63-.45,1.14-1.01,1.14H26.6c-.56,0-1.01-.51-1.01-1.14v-48.02c0-.63.45-1.14,1.01-1.14h126.79c.56,0,1.01.51,1.01,1.14Zm-78.89,27.85c2.85-4.81,3.26-10.78,1.08-15.95l-3.19-7.62-6.03,2.53,3.19,7.61c1.37,3.28,1.12,7.05-.67,10.09-3.16,5.34-3.3,12.06-.33,17.52l2.3,4.24,5.75-3.12-2.29-4.24c-1.88-3.45-1.8-7.7.2-11.07Zm17.44,0c2.84-4.81,3.25-10.78,1.08-15.95l-3.19-7.62-6.03,2.53,3.19,7.61c1.37,3.28,1.12,7.05-.68,10.09-3.16,5.34-3.29,12.06-.33,17.52l2.3,4.24,5.75-3.12-2.3-4.24c-1.87-3.45-1.79-7.7.21-11.07Zm17.44,0c2.85-4.81,3.26-10.77,1.09-15.94l-3.19-7.62-6.03,2.53,3.2,7.61c1.37,3.28,1.12,7.05-.68,10.09-3.16,5.34-3.29,12.06-.33,17.52l2.3,4.24,5.75-3.12-2.3-4.24c-1.88-3.45-1.8-7.7.2-11.08Zm58.07-52.84v88.89H11.54V40.86h156.92ZM22,55.45c0,1.26,1.03,2.29,2.29,2.29h130.77c1.26,0,2.29-1.03,2.29-2.29v-4.58c0-1.26-1.03-2.29-2.29-2.29H24.29c-1.26,0-2.29,1.03-2.29,2.29v4.58Zm135.67,10.4c0-2.43-1.92-4.41-4.28-4.41H26.6c-2.36,0-4.28,1.98-4.28,4.41v48.02c0,2.43,1.92,4.41,4.28,4.41h126.79c2.36,0,4.28-1.98,4.28-4.41v-48.02Zm-3.6-11.38H25.27v-2.62h128.81v2.62ZM25.27,159.08h128.81v-2.62H25.27v2.62Zm143.19-13.62v45.74H11.54v-45.73h156.92Zm-11.12,10.02c0-1.26-1.03-2.29-2.29-2.29H24.29c-1.26,0-2.29,1.03-2.29,2.29v4.58c0,1.26,1.03,2.29,2.29,2.29h130.77c1.26,0,2.29-1.03,2.29-2.29v-4.58Z"/>
  </g>
</svg>