<?xml version="1.0" encoding="UTF-8"?>
<svg id="Layer_1" data-name="Layer 1" xmlns="http://www.w3.org/2000/svg" viewBox="0 0 180 300">
  <defs>
    <style>
      .cls-1 {
        fill: #007979;
      }

      .cls-2 {
        fill: #fff;
      }
    </style>
  </defs>
  <g id="fridge">
    <path class="cls-1" d="m168.54,295.15H11.46c-3.56,0-6.46-3.26-6.46-7.27v-69.49c0-4.01,2.9-7.27,6.46-7.27h157.07c3.56,0,6.46,3.26,6.46,7.27v69.49c0,4.01-2.9,7.27-6.46,7.27Zm-.65-290.31H11.46c-3.57,0-6.46,2.9-6.46,6.46v191.37c0,3.57,2.9,6.46,6.46,6.46h156.42c3.56,0,6.46-2.9,6.46-6.46V11.31c0-3.57-2.9-6.46-6.46-6.46Z"/>
    <path class="cls-2" d="m103.83,43.88v127.34h2.59V43.88h-2.59Zm-10.86-32.57v191.37h74.92V11.31h-74.92Zm16.68,160.88c0,1.25-1.01,2.26-2.26,2.26h-4.52c-1.25,0-2.26-1.01-2.26-2.26V42.91c0-1.24,1.01-2.26,2.26-2.26h4.52c1.25,0,2.26,1.02,2.26,2.26v129.28Zm-5.82-.97h2.59V43.88h-2.59v127.34Zm0-127.34v127.34h2.59V43.88h-2.59ZM26.01,226.52v2.59h127.34v-2.59H26.01Zm142.31-8.95H11.68c-.09.13-.21.41-.21.81v69.49c0,.39.12.68.21.81h156.64c.09-.13.21-.41.21-.81v-69.49c0-.39-.12-.68-.21-.81Zm-11.74,12.5c0,1.25-1.01,2.26-2.26,2.26H25.04c-1.25,0-2.26-1.01-2.26-2.26v-4.52c0-1.25,1.01-2.26,2.26-2.26h129.28c1.25,0,2.26,1.01,2.26,2.26v4.52Zm-130.57-.97h127.34v-2.59H26.01v2.59Zm0-2.59v2.59h127.34v-2.59H26.01ZM72.78,43.88v127.34h2.59V43.88h-2.59Zm0,0v127.34h2.59V43.88h-2.59Zm-50.2,51.95v29.09h38.78v-29.09H22.58Zm27.14,11.55l.76.41c.54.29.55,1.06.02,1.36-.12.07-.26.1-.39.1s-.26-.03-.37-.09l-1.76-.95c-.34-.18-.75-.17-1.09.02l-2.3,1.33c-.3.17-.3.59,0,.77l2.29,1.33c.34.19.75.19,1.09.01l1.77-.95c.24-.13.52-.13.76,0,.26.16.39.41.39.68s-.14.54-.41.69l-.77.42c-.31.17-.32.6-.01.78l1.45.82c.48.28.65.89.39,1.37-.18.32-.53.5-.89.5-.17,0-.35-.05-.51-.14l-1.43-.82c-.3-.17-.69.05-.68.39l.02.88c.01.61-.65,1-1.18.7-.23-.14-.41-.38-.43-.65l-.08-2.15c-.01-.3-.18-.58-.45-.73l-2.47-1.43c-.3-.17-.67.04-.67.39v2.63c0,.39.2.75.53.95l1.8,1.11c.23.14.38.37.39.64.03.48-.36.82-.78.82-.14,0-.27-.04-.41-.12l-.86-.53c-.3-.18-.68.03-.68.38v1.71c0,.28-.05.53-.23.71-.18.18-.39.29-.67.29-.56,0-.96-.45-.96-1v-1.58c0-.35-.46-.56-.76-.38l-.64.37c-.48.3-1.07.11-1.21-.45-.09-.34.05-.69.34-.87l1.67-.99c.33-.2.6-.56.6-.94v-2.64c0-.34-.43-.56-.72-.39l-2.73,1.54h0s-.12,2.64-.12,2.64c0,.27-.18.52-.42.65-.53.3-1.2-.08-1.18-.7l.02-.88c0-.35-.37-.58-.67-.4l-1.36.83c-.48.28-1.04.11-1.31-.37-.1-.17-.15-.37-.15-.56,0-.32.14-.63.45-.81l1.39-.82c.3-.17.28-.61-.02-.78l-.78-.42c-.27-.14-.42-.41-.42-.69s.14-.52.39-.68c.23-.14.52-.14.76,0l1.76.95c.34.19.75.18,1.09-.01l2.29-1.33c.29-.17.3-.6,0-.77l-2.3-1.34c-.34-.19-.75-.2-1.09-.01l-1.76.95c-.12.06-.25.09-.37.09-.14,0-.27-.03-.39-.1-.54-.3-.52-1.07.02-1.36l.76-.42c.31-.16.32-.6.01-.77l-1.36-.83c-.48-.27-.56-.89-.29-1.36.18-.32.48-.5.81-.5.16,0,.33.05.48.14l1.39.82c.3.17.66-.05.65-.4l-.03-.87c-.01-.47.36-.81.78-.81.13,0,.26.03.39.11.23.13.38.38.39.65l.06,2c.01.39.22.74.56.94l2.27,1.27c.3.17.74-.04.74-.38v-2.61c0-.38-.27-.74-.59-.94l-1.71-1.05c-.23-.15-.36-.39-.36-.67,0-.61.62-.99,1.14-.67l.76.45c.3.19.76-.03.76-.37v-1.6c0-.52.31-.99.83-1.04.6-.05,1.03.41,1.03,1v1.66c0,.35.37.56.67.38l.81-.48c.13-.08.3-.12.43-.12.41,0,.81.33.81.79,0,.27-.14.52-.37.67l-1.82,1.12c-.34.2-.54.56-.54.95v2.66c0,.34.37.56.67.38l2.42-1.4c.33-.19.54-.55.55-.93l.06-2.01c.01-.27.16-.52.39-.65.13-.08.26-.11.39-.11.42,0,.8.34.78.81l-.02.87c-.01.35.36.58.67.4l1.45-.82c.48-.28,1.13-.11,1.4.37.09.16.13.34.13.5,0,.34-.17.68-.48.86l-1.45.83c-.3.18-.32.61,0,.78ZM11.46,11.31v191.37h74.98V11.31H11.46Zm53.13,114.31c0,1.39-1.13,2.53-2.53,2.53H21.88c-1.4,0-2.53-1.14-2.53-2.53v-30.49c0-1.4,1.14-2.53,2.53-2.53h40.19c1.4,0,2.53,1.14,2.53,2.53v30.49Zm14.01,46.57c0,1.25-1.01,2.26-2.26,2.26h-4.52c-1.24,0-2.26-1.01-2.26-2.26V42.91c0-1.24,1.02-2.26,2.26-2.26h4.52c1.25,0,2.26,1.02,2.26,2.26v129.28Zm-5.82-.97h2.59V43.88h-2.59v127.34Zm-50.2-46.3h38.78v-29.09H22.58v29.09Zm9.85-20.52c.18-.32.48-.5.81-.5.16,0,.33.05.48.14l1.39.82c.3.17.66-.05.65-.4l-.03-.87c-.01-.47.36-.81.78-.81.13,0,.26.03.39.11.23.13.38.38.39.65l.06,2c.01.39.22.74.56.94l2.27,1.27c.3.17.74-.04.74-.38v-2.61c0-.38-.27-.74-.59-.94l-1.71-1.05c-.23-.15-.36-.39-.36-.67,0-.61.62-.99,1.14-.67l.76.45c.3.19.76-.03.76-.37v-1.6c0-.52.31-.99.83-1.04.6-.05,1.03.41,1.03,1v1.66c0,.35.37.56.67.38l.81-.48c.13-.08.3-.12.43-.12.41,0,.81.33.81.79,0,.27-.14.52-.37.67l-1.82,1.12c-.34.2-.54.56-.54.95v2.66c0,.34.37.56.67.38l2.42-1.4c.33-.19.54-.55.55-.93l.06-2.01c.01-.27.16-.52.39-.65.13-.08.26-.11.39-.11.42,0,.8.34.78.81l-.02.87c-.01.35.36.58.67.4l1.45-.82c.48-.28,1.13-.11,1.4.37.09.16.13.34.13.5,0,.34-.17.68-.48.86l-1.45.83c-.3.18-.32.61,0,.78l.76.41c.54.29.55,1.06.02,1.36-.12.07-.26.1-.39.1s-.26-.03-.37-.09l-1.76-.95c-.34-.18-.75-.17-1.09.02l-2.3,1.33c-.3.17-.3.59,0,.77l2.29,1.33c.34.19.75.19,1.09.01l1.77-.95c.24-.13.52-.13.76,0,.26.16.39.41.39.68s-.14.54-.41.69l-.77.42c-.31.17-.32.6-.01.78l1.45.82c.48.28.65.89.39,1.37-.18.32-.53.5-.89.5-.17,0-.35-.05-.51-.14l-1.43-.82c-.3-.17-.69.05-.68.39l.02.88c.01.61-.65,1-1.18.7-.23-.14-.41-.38-.43-.65l-.08-2.15c-.01-.3-.18-.58-.45-.73l-2.47-1.43c-.3-.17-.67.04-.67.39v2.63c0,.39.2.75.53.95l1.8,1.11c.23.14.38.37.39.64.03.48-.36.82-.78.82-.14,0-.27-.04-.41-.12l-.86-.53c-.3-.18-.68.03-.68.38v1.71c0,.28-.05.53-.23.71-.18.18-.39.29-.67.29-.56,0-.96-.45-.96-1v-1.58c0-.35-.46-.56-.76-.38l-.64.37c-.48.3-1.07.11-1.21-.45-.09-.34.05-.69.34-.87l1.67-.99c.33-.2.6-.56.6-.94v-2.64c0-.34-.43-.56-.72-.39l-2.73,1.54h0s-.12,2.64-.12,2.64c0,.27-.18.52-.42.65-.53.3-1.2-.08-1.18-.7l.02-.88c0-.35-.37-.58-.67-.4l-1.36.83c-.48.28-1.04.11-1.31-.37-.1-.17-.15-.37-.15-.56,0-.32.14-.63.45-.81l1.39-.82c.3-.17.28-.61-.02-.78l-.78-.42c-.27-.14-.42-.41-.42-.69s.14-.52.39-.68c.23-.14.52-.14.76,0l1.76.95c.34.19.75.18,1.09-.01l2.29-1.33c.29-.17.3-.6,0-.77l-2.3-1.34c-.34-.19-.75-.2-1.09-.01l-1.76.95c-.12.06-.25.09-.37.09-.14,0-.27-.03-.39-.1-.54-.3-.52-1.07.02-1.36l.76-.42c.31-.16.32-.6.01-.77l-1.36-.83c-.48-.27-.56-.89-.29-1.36Zm-9.85-8.57v29.09h38.78v-29.09H22.58Zm27.14,11.55l.76.41c.54.29.55,1.06.02,1.36-.12.07-.26.1-.39.1s-.26-.03-.37-.09l-1.76-.95c-.34-.18-.75-.17-1.09.02l-2.3,1.33c-.3.17-.3.59,0,.77l2.29,1.33c.34.19.75.19,1.09.01l1.77-.95c.24-.13.52-.13.76,0,.26.16.39.41.39.68s-.14.54-.41.69l-.77.42c-.31.17-.32.6-.01.78l1.45.82c.48.28.65.89.39,1.37-.18.32-.53.5-.89.5-.17,0-.35-.05-.51-.14l-1.43-.82c-.3-.17-.69.05-.68.39l.02.88c.01.61-.65,1-1.18.7-.23-.14-.41-.38-.43-.65l-.08-2.15c-.01-.3-.18-.58-.45-.73l-2.47-1.43c-.3-.17-.67.04-.67.39v2.63c0,.39.2.75.53.95l1.8,1.11c.23.14.38.37.39.64.03.48-.36.82-.78.82-.14,0-.27-.04-.41-.12l-.86-.53c-.3-.18-.68.03-.68.38v1.71c0,.28-.05.53-.23.71-.18.18-.39.29-.67.29-.56,0-.96-.45-.96-1v-1.58c0-.35-.46-.56-.76-.38l-.64.37c-.48.3-1.07.11-1.21-.45-.09-.34.05-.69.34-.87l1.67-.99c.33-.2.6-.56.6-.94v-2.64c0-.34-.43-.56-.72-.39l-2.73,1.54h0s-.12,2.64-.12,2.64c0,.27-.18.52-.42.65-.53.3-1.2-.08-1.18-.7l.02-.88c0-.35-.37-.58-.67-.4l-1.36.83c-.48.28-1.04.11-1.31-.37-.1-.17-.15-.37-.15-.56,0-.32.14-.63.45-.81l1.39-.82c.3-.17.28-.61-.02-.78l-.78-.42c-.27-.14-.42-.41-.42-.69s.14-.52.39-.68c.23-.14.52-.14.76,0l1.76.95c.34.19.75.18,1.09-.01l2.29-1.33c.29-.17.3-.6,0-.77l-2.3-1.34c-.34-.19-.75-.2-1.09-.01l-1.76.95c-.12.06-.25.09-.37.09-.14,0-.27-.03-.39-.1-.54-.3-.52-1.07.02-1.36l.76-.42c.31-.16.32-.6.01-.77l-1.36-.83c-.48-.27-.56-.89-.29-1.36.18-.32.48-.5.81-.5.16,0,.33.05.48.14l1.39.82c.3.17.66-.05.65-.4l-.03-.87c-.01-.47.36-.81.78-.81.13,0,.26.03.39.11.23.13.38.38.39.65l.06,2c.01.39.22.74.56.94l2.27,1.27c.3.17.74-.04.74-.38v-2.61c0-.38-.27-.74-.59-.94l-1.71-1.05c-.23-.15-.36-.39-.36-.67,0-.61.62-.99,1.14-.67l.76.45c.3.19.76-.03.76-.37v-1.6c0-.52.31-.99.83-1.04.6-.05,1.03.41,1.03,1v1.66c0,.35.37.56.67.38l.81-.48c.13-.08.3-.12.43-.12.41,0,.81.33.81.79,0,.27-.14.52-.37.67l-1.82,1.12c-.34.2-.54.56-.54.95v2.66c0,.34.37.56.67.38l2.42-1.4c.33-.19.54-.55.55-.93l.06-2.01c.01-.27.16-.52.39-.65.13-.08.26-.11.39-.11.42,0,.8.34.78.81l-.02.87c-.01.35.36.58.67.4l1.45-.82c.48-.28,1.13-.11,1.4.37.09.16.13.34.13.5,0,.34-.17.68-.48.86l-1.45.83c-.3.18-.32.61,0,.78Z"/>
  </g>
</svg>